<mxfile host="65bd71144e">
    <diagram id="UrpWUrPDc7pazScPs_SQ" name="Page-1">
        <mxGraphModel dx="1942" dy="980" grid="1" gridSize="10" guides="1" tooltips="1" connect="1" arrows="1" fold="1" page="1" pageScale="1" pageWidth="850" pageHeight="1100" background="#ffffff" math="0" shadow="0">
            <root>
                <mxCell id="0"/>
                <mxCell id="1" parent="0"/>
                <mxCell id="55" value="" style="rounded=0;whiteSpace=wrap;html=1;fillColor=none;strokeColor=#466BB0;dashed=1;" parent="1" vertex="1">
                    <mxGeometry x="-490" y="130" width="1850" height="850" as="geometry"/>
                </mxCell>
                <mxCell id="5" value="" style="rounded=1;whiteSpace=wrap;html=1;labelBackgroundColor=none;strokeWidth=2;fillColor=none;strokeColor=#FBB041;" parent="1" vertex="1">
                    <mxGeometry x="840" y="205" width="500" height="750" as="geometry"/>
                </mxCell>
                <mxCell id="57" value="" style="rounded=0;whiteSpace=wrap;html=1;labelBackgroundColor=none;strokeColor=none;strokeWidth=2;fillColor=#E6E6E6;" parent="1" vertex="1">
                    <mxGeometry x="1140" y="490" width="170" height="120" as="geometry"/>
                </mxCell>
                <mxCell id="7" value="" style="rounded=1;whiteSpace=wrap;html=1;labelBackgroundColor=none;strokeWidth=2;fillColor=none;strokeColor=#FBB041;" parent="1" vertex="1">
                    <mxGeometry x="-450" y="205" width="1150" height="750" as="geometry"/>
                </mxCell>
                <mxCell id="3" value="&lt;span style=&quot;color: rgb(0 , 0 , 0)&quot;&gt;Mspider Mesh&lt;/span&gt;" style="text;html=1;align=center;verticalAlign=middle;resizable=0;points=[];autosize=1;strokeColor=none;fillColor=none;fontSize=20;" parent="1" vertex="1">
                    <mxGeometry x="-505" y="90" width="140" height="30" as="geometry"/>
                </mxCell>
                <mxCell id="6" value="" style="rounded=0;whiteSpace=wrap;html=1;labelBackgroundColor=none;strokeColor=none;strokeWidth=2;fillColor=#E6E6E6;" parent="1" vertex="1">
                    <mxGeometry x="-210" y="265" width="230" height="100" as="geometry"/>
                </mxCell>
                <mxCell id="8" value="" style="rounded=0;whiteSpace=wrap;html=1;labelBackgroundColor=none;strokeColor=none;strokeWidth=2;fillColor=#E6E6E6;" parent="1" vertex="1">
                    <mxGeometry x="-10" y="475" width="230" height="140" as="geometry"/>
                </mxCell>
                <mxCell id="9" value="&lt;font style=&quot;font-size: 20px&quot;&gt;Service A&lt;/font&gt;" style="rounded=1;whiteSpace=wrap;html=1;labelBackgroundColor=none;fontColor=#000000;strokeColor=none;strokeWidth=2;fillColor=#FFFFFF;" parent="1" vertex="1">
                    <mxGeometry x="-190" y="285" width="120" height="60" as="geometry"/>
                </mxCell>
                <mxCell id="14" value="" style="rounded=0;whiteSpace=wrap;html=1;labelBackgroundColor=none;strokeColor=none;strokeWidth=2;fillColor=#E6E6E6;" parent="1" vertex="1">
                    <mxGeometry x="910" y="270" width="230" height="100" as="geometry"/>
                </mxCell>
                <mxCell id="15" value="&lt;font style=&quot;font-size: 20px&quot;&gt;Service B&lt;/font&gt;" style="rounded=1;whiteSpace=wrap;html=1;labelBackgroundColor=none;fontColor=#000000;strokeColor=none;strokeWidth=2;fillColor=#FFFFFF;" parent="1" vertex="1">
                    <mxGeometry x="1010" y="290" width="120" height="60" as="geometry"/>
                </mxCell>
                <mxCell id="17" value="" style="shape=hexagon;perimeter=hexagonPerimeter2;whiteSpace=wrap;html=1;fixedSize=1;labelBackgroundColor=none;fontSize=20;fontColor=#000000;strokeColor=#E904EE;strokeWidth=2;fillColor=#FFFFFF;" parent="1" vertex="1">
                    <mxGeometry x="-60" y="285" width="70" height="60" as="geometry"/>
                </mxCell>
                <mxCell id="19" value="" style="rounded=0;whiteSpace=wrap;html=1;labelBackgroundColor=none;strokeColor=none;strokeWidth=2;fillColor=#E6E6E6;" parent="1" vertex="1">
                    <mxGeometry x="-205" y="815" width="230" height="100" as="geometry"/>
                </mxCell>
                <mxCell id="20" value="&lt;font style=&quot;font-size: 20px&quot;&gt;Service B&lt;/font&gt;" style="rounded=1;whiteSpace=wrap;html=1;labelBackgroundColor=none;fontColor=#000000;strokeColor=none;strokeWidth=2;fillColor=#FFFFFF;" parent="1" vertex="1">
                    <mxGeometry x="-185" y="835" width="120" height="60" as="geometry"/>
                </mxCell>
                <mxCell id="21" value="" style="shape=hexagon;perimeter=hexagonPerimeter2;whiteSpace=wrap;html=1;fixedSize=1;labelBackgroundColor=none;fontSize=20;fontColor=#000000;strokeColor=#E904EE;strokeWidth=2;fillColor=#FFFFFF;" parent="1" vertex="1">
                    <mxGeometry x="-55" y="835" width="70" height="60" as="geometry"/>
                </mxCell>
                <mxCell id="22" value="" style="shape=hexagon;perimeter=hexagonPerimeter2;whiteSpace=wrap;html=1;fixedSize=1;labelBackgroundColor=none;fontSize=20;fontColor=#000000;strokeColor=#E904EE;strokeWidth=2;fillColor=#FFFFFF;" parent="1" vertex="1">
                    <mxGeometry x="930" y="290" width="70" height="60" as="geometry"/>
                </mxCell>
                <mxCell id="23" value="" style="rounded=0;whiteSpace=wrap;html=1;labelBackgroundColor=none;strokeColor=none;strokeWidth=2;fillColor=#E6E6E6;" parent="1" vertex="1">
                    <mxGeometry x="910" y="820" width="230" height="100" as="geometry"/>
                </mxCell>
                <mxCell id="24" value="&lt;font style=&quot;font-size: 20px&quot;&gt;Service B&lt;/font&gt;" style="rounded=1;whiteSpace=wrap;html=1;labelBackgroundColor=none;fontColor=#000000;strokeColor=none;strokeWidth=2;fillColor=#FFFFFF;" parent="1" vertex="1">
                    <mxGeometry x="1010" y="840" width="120" height="60" as="geometry"/>
                </mxCell>
                <mxCell id="25" value="" style="shape=hexagon;perimeter=hexagonPerimeter2;whiteSpace=wrap;html=1;fixedSize=1;labelBackgroundColor=none;fontSize=20;fontColor=#000000;strokeColor=#E904EE;strokeWidth=2;fillColor=#FFFFFF;" parent="1" vertex="1">
                    <mxGeometry x="930" y="840" width="70" height="60" as="geometry"/>
                </mxCell>
                <mxCell id="26" value="&lt;font style=&quot;font-size: 18px&quot;&gt;Hosted&lt;br&gt;Control Plane&lt;/font&gt;" style="rounded=1;whiteSpace=wrap;html=1;labelBackgroundColor=none;fontColor=#000000;strokeColor=none;strokeWidth=2;fillColor=#FFFFFF;" parent="1" vertex="1">
                    <mxGeometry y="545" width="210" height="60" as="geometry"/>
                </mxCell>
                <mxCell id="33" value="" style="editableCssRules=.*;shape=image;verticalLabelPosition=bottom;labelBackgroundColor=#ffffff;verticalAlign=top;aspect=fixed;imageAspect=0;image=data:image/svg+xml,PHN2ZyB4bWxucz0iaHR0cDovL3d3dy53My5vcmcvMjAwMC9zdmciIHhtbG5zOnY9Imh0dHBzOi8vdmVjdGEuaW8vbmFubyIgd2lkdGg9IjE2MCIgaGVpZ2h0PSIyNDAiIHZpZXdCb3g9IjAgMCAxNjAgMjQwIj4mI3hhOwk8c3R5bGUgdHlwZT0idGV4dC9jc3MiPiYjeGE7CS5zdDB7ZmlsbDojNDY2YmIwO30mI3hhOwk8L3N0eWxlPiYjeGE7CTxwYXRoIGNsYXNzPSJzdDAiIGQ9Ik02MCAyNDBMMCAyMTBoMTYwem0wLTE2MEwwIDIwMGw2MC0xMHpNNzAgMHYxOTBsOTAgMTB6Ii8+JiN4YTs8L3N2Zz4=;fontColor=default;fontSize=20;strokeColor=#E904EE;strokeWidth=2;fillColor=#FFFFFF;" parent="1" vertex="1">
                    <mxGeometry x="88.75" y="480" width="32.5" height="50" as="geometry"/>
                </mxCell>
                <mxCell id="52" value="" style="endArrow=classicThin;html=1;fontSize=20;fontColor=#000000;strokeColor=#009900;strokeWidth=4;endSize=5;startSize=5;exitX=0;exitY=0.5;exitDx=0;exitDy=0;entryX=1;entryY=0.5;entryDx=0;entryDy=0;startArrow=classicThin;startFill=1;endFill=1;" parent="1" source="23" target="19" edge="1">
                    <mxGeometry width="50" height="50" relative="1" as="geometry">
                        <mxPoint x="756" y="630" as="sourcePoint"/>
                        <mxPoint x="758.3" y="827.2" as="targetPoint"/>
                    </mxGeometry>
                </mxCell>
                <mxCell id="53" value="&lt;span style=&quot;color: rgb(0 , 0 , 0)&quot;&gt;Cluster: West&lt;/span&gt;" style="text;html=1;align=center;verticalAlign=middle;resizable=0;points=[];autosize=1;strokeColor=none;fillColor=none;fontSize=20;" parent="1" vertex="1">
                    <mxGeometry x="-450" y="170" width="140" height="30" as="geometry"/>
                </mxCell>
                <mxCell id="54" value="&lt;span style=&quot;color: rgb(0 , 0 , 0)&quot;&gt;Cluster: East&lt;/span&gt;" style="text;html=1;align=center;verticalAlign=middle;resizable=0;points=[];autosize=1;strokeColor=none;fillColor=none;fontSize=20;" parent="1" vertex="1">
                    <mxGeometry x="835" y="170" width="130" height="30" as="geometry"/>
                </mxCell>
                <mxCell id="56" value="" style="endArrow=classicThin;html=1;fontSize=20;fontColor=#000000;strokeColor=#009900;strokeWidth=4;endSize=5;startSize=5;startArrow=classicThin;startFill=1;endFill=1;entryX=1;entryY=0.5;entryDx=0;entryDy=0;" parent="1" target="6" edge="1">
                    <mxGeometry width="50" height="50" relative="1" as="geometry">
                        <mxPoint x="910" y="315" as="sourcePoint"/>
                        <mxPoint x="50" y="315" as="targetPoint"/>
                    </mxGeometry>
                </mxCell>
                <mxCell id="58" value="&lt;font style=&quot;font-size: 18px&quot;&gt;Sub Control Plane&lt;/font&gt;" style="rounded=1;whiteSpace=wrap;html=1;labelBackgroundColor=none;fontColor=#000000;strokeColor=none;strokeWidth=2;fillColor=#FFFFFF;" parent="1" vertex="1">
                    <mxGeometry x="1164" y="540" width="120" height="60" as="geometry"/>
                </mxCell>
                <mxCell id="59" value="" style="editableCssRules=.*;shape=image;verticalLabelPosition=bottom;labelBackgroundColor=#ffffff;verticalAlign=top;aspect=fixed;imageAspect=0;image=data:image/svg+xml,PHN2ZyB4bWxucz0iaHR0cDovL3d3dy53My5vcmcvMjAwMC9zdmciIHhtbG5zOnY9Imh0dHBzOi8vdmVjdGEuaW8vbmFubyIgd2lkdGg9IjE2MCIgaGVpZ2h0PSIyNDAiIHZpZXdCb3g9IjAgMCAxNjAgMjQwIj4mI3hhOwk8c3R5bGUgdHlwZT0idGV4dC9jc3MiPiYjeGE7CS5zdDB7ZmlsbDojNDY2YmIwO30mI3hhOwk8L3N0eWxlPiYjeGE7CTxwYXRoIGNsYXNzPSJzdDAiIGQ9Ik02MCAyNDBMMCAyMTBoMTYwem0wLTE2MEwwIDIwMGw2MC0xMHpNNzAgMHYxOTBsOTAgMTB6Ii8+JiN4YTs8L3N2Zz4=;fontColor=default;fontSize=20;strokeColor=#E904EE;strokeWidth=2;fillColor=#FFFFFF;" parent="1" vertex="1">
                    <mxGeometry x="1213.88" y="498.85" width="20.25" height="31.15" as="geometry"/>
                </mxCell>
                <mxCell id="60" value="" style="endArrow=classicThin;html=1;fontSize=20;fontColor=#000000;strokeColor=#496BAF;strokeWidth=4;endSize=5;startSize=5;exitX=0.25;exitY=0;exitDx=0;exitDy=0;entryX=1;entryY=0.75;entryDx=0;entryDy=0;startArrow=none;startFill=0;endFill=1;edgeStyle=orthogonalEdgeStyle;dashed=1;" parent="1" source="8" target="6" edge="1">
                    <mxGeometry width="50" height="50" relative="1" as="geometry">
                        <mxPoint x="505" y="395" as="sourcePoint"/>
                        <mxPoint x="15" y="395" as="targetPoint"/>
                        <Array as="points"/>
                    </mxGeometry>
                </mxCell>
                <mxCell id="61" value="" style="endArrow=classicThin;html=1;fontSize=20;fontColor=#000000;strokeColor=#496BAF;strokeWidth=4;endSize=5;startSize=5;exitX=0.819;exitY=-0.004;exitDx=0;exitDy=0;entryX=0;entryY=0.75;entryDx=0;entryDy=0;startArrow=none;startFill=0;endFill=1;edgeStyle=orthogonalEdgeStyle;dashed=1;exitPerimeter=0;" parent="1" source="8" target="14" edge="1">
                    <mxGeometry width="50" height="50" relative="1" as="geometry">
                        <mxPoint x="472" y="490" as="sourcePoint"/>
                        <mxPoint x="430" y="355" as="targetPoint"/>
                        <Array as="points"/>
                    </mxGeometry>
                </mxCell>
                <mxCell id="62" value="" style="endArrow=classicThin;html=1;fontSize=20;fontColor=#000000;strokeColor=#496BAF;strokeWidth=4;endSize=5;startSize=5;exitX=0.25;exitY=1;exitDx=0;exitDy=0;entryX=1;entryY=0.25;entryDx=0;entryDy=0;startArrow=none;startFill=0;endFill=1;edgeStyle=orthogonalEdgeStyle;dashed=1;" parent="1" source="8" target="19" edge="1">
                    <mxGeometry width="50" height="50" relative="1" as="geometry">
                        <mxPoint x="72" y="485" as="sourcePoint"/>
                        <mxPoint x="30" y="350" as="targetPoint"/>
                        <Array as="points"/>
                    </mxGeometry>
                </mxCell>
                <mxCell id="63" value="" style="endArrow=classicThin;html=1;fontSize=20;fontColor=#000000;strokeColor=#496BAF;strokeWidth=4;endSize=5;startSize=5;exitX=0.75;exitY=1;exitDx=0;exitDy=0;entryX=0;entryY=0.25;entryDx=0;entryDy=0;startArrow=none;startFill=0;endFill=1;edgeStyle=orthogonalEdgeStyle;dashed=1;" parent="1" source="8" target="23" edge="1">
                    <mxGeometry width="50" height="50" relative="1" as="geometry">
                        <mxPoint x="544.8319999999999" y="489.44000000000005" as="sourcePoint"/>
                        <mxPoint x="920" y="355" as="targetPoint"/>
                        <Array as="points"/>
                    </mxGeometry>
                </mxCell>
                <mxCell id="64" value="" style="endArrow=classicThin;html=1;fontSize=20;fontColor=#000000;strokeColor=#59A6C2;strokeWidth=4;endSize=5;startSize=5;exitX=0.5;exitY=0;exitDx=0;exitDy=0;entryX=1;entryY=0.75;entryDx=0;entryDy=0;startArrow=none;startFill=0;endFill=1;edgeStyle=orthogonalEdgeStyle;dashed=1;labelBackgroundColor=none;" parent="1" source="57" target="14" edge="1">
                    <mxGeometry width="50" height="50" relative="1" as="geometry">
                        <mxPoint x="544.8319999999999" y="489.44000000000005" as="sourcePoint"/>
                        <mxPoint x="920" y="355" as="targetPoint"/>
                        <Array as="points"/>
                    </mxGeometry>
                </mxCell>
                <mxCell id="66" value="&lt;span style=&quot;color: rgb(0, 0, 0); font-size: 18px;&quot;&gt;&lt;font style=&quot;font-size: 18px;&quot;&gt;Sidecar Control&lt;/font&gt;&lt;/span&gt;" style="edgeLabel;html=1;align=center;verticalAlign=middle;resizable=0;points=[];labelBackgroundColor=none;fontSize=18;" parent="64" vertex="1" connectable="0">
                    <mxGeometry x="-0.2004" y="4" relative="1" as="geometry">
                        <mxPoint x="4" y="288" as="offset"/>
                    </mxGeometry>
                </mxCell>
                <mxCell id="65" value="" style="endArrow=classicThin;html=1;fontSize=20;fontColor=#000000;strokeColor=#59A6C2;strokeWidth=4;endSize=5;startSize=5;exitX=0.5;exitY=1;exitDx=0;exitDy=0;entryX=1;entryY=0.5;entryDx=0;entryDy=0;startArrow=none;startFill=0;endFill=1;edgeStyle=orthogonalEdgeStyle;dashed=1;labelBackgroundColor=#FFFFFF;" parent="1" source="57" target="23" edge="1">
                    <mxGeometry width="50" height="50" relative="1" as="geometry">
                        <mxPoint x="1184" y="490" as="sourcePoint"/>
                        <mxPoint x="1150" y="355" as="targetPoint"/>
                        <Array as="points"/>
                    </mxGeometry>
                </mxCell>
                <mxCell id="67" value="" style="rounded=0;whiteSpace=wrap;html=1;labelBackgroundColor=none;strokeColor=#FFFFFF;strokeWidth=2;fillColor=#E5E5E4;shadow=0;glass=0;sketch=0;" parent="1" vertex="1">
                    <mxGeometry x="390" y="450" width="240" height="190" as="geometry"/>
                </mxCell>
                <mxCell id="68" value="&lt;font style=&quot;font-size: 18px&quot; color=&quot;#000000&quot;&gt;Virtual Custer&lt;/font&gt;" style="rounded=1;whiteSpace=wrap;html=1;labelBackgroundColor=none;strokeColor=none;strokeWidth=2;fillColor=#D6E8D5;" parent="1" vertex="1">
                    <mxGeometry x="405" y="565" width="210" height="60" as="geometry"/>
                </mxCell>
                <mxCell id="69" value="" style="endArrow=classicThin;html=1;fontSize=20;fontColor=#000000;strokeColor=#496BAF;strokeWidth=4;endSize=5;startSize=5;exitX=1;exitY=0.5;exitDx=0;exitDy=0;entryX=0;entryY=0.5;entryDx=0;entryDy=0;startArrow=classicThin;startFill=1;endFill=1;dashed=1;" parent="1" source="8" target="67" edge="1">
                    <mxGeometry width="50" height="50" relative="1" as="geometry">
                        <mxPoint x="65" y="485" as="sourcePoint"/>
                        <mxPoint x="30" y="350" as="targetPoint"/>
                    </mxGeometry>
                </mxCell>
                <mxCell id="71" value="&lt;font style=&quot;font-size: 18px&quot; color=&quot;#000000&quot;&gt;Mspider Mcpc Controller&lt;/font&gt;" style="rounded=1;whiteSpace=wrap;html=1;labelBackgroundColor=none;strokeColor=none;strokeWidth=2;fillColor=#E1D5E7;" parent="1" vertex="1">
                    <mxGeometry x="405" y="480" width="210" height="75" as="geometry"/>
                </mxCell>
                <mxCell id="74" value="" style="rounded=0;whiteSpace=wrap;html=1;labelBackgroundColor=none;strokeColor=none;strokeWidth=2;fillColor=#E6E6E6;" parent="1" vertex="1">
                    <mxGeometry x="-440" y="490" width="170" height="120" as="geometry"/>
                </mxCell>
                <mxCell id="75" value="&lt;font style=&quot;font-size: 18px&quot;&gt;Sub Control Plane&lt;/font&gt;" style="rounded=1;whiteSpace=wrap;html=1;labelBackgroundColor=none;fontColor=#000000;strokeColor=none;strokeWidth=2;fillColor=#FFFFFF;" parent="1" vertex="1">
                    <mxGeometry x="-416" y="540" width="120" height="60" as="geometry"/>
                </mxCell>
                <mxCell id="76" value="" style="editableCssRules=.*;shape=image;verticalLabelPosition=bottom;labelBackgroundColor=#ffffff;verticalAlign=top;aspect=fixed;imageAspect=0;image=data:image/svg+xml,PHN2ZyB4bWxucz0iaHR0cDovL3d3dy53My5vcmcvMjAwMC9zdmciIHhtbG5zOnY9Imh0dHBzOi8vdmVjdGEuaW8vbmFubyIgd2lkdGg9IjE2MCIgaGVpZ2h0PSIyNDAiIHZpZXdCb3g9IjAgMCAxNjAgMjQwIj4mI3hhOwk8c3R5bGUgdHlwZT0idGV4dC9jc3MiPiYjeGE7CS5zdDB7ZmlsbDojNDY2YmIwO30mI3hhOwk8L3N0eWxlPiYjeGE7CTxwYXRoIGNsYXNzPSJzdDAiIGQ9Ik02MCAyNDBMMCAyMTBoMTYwem0wLTE2MEwwIDIwMGw2MC0xMHpNNzAgMHYxOTBsOTAgMTB6Ii8+JiN4YTs8L3N2Zz4=;fontColor=default;fontSize=20;strokeColor=#E904EE;strokeWidth=2;fillColor=#FFFFFF;" parent="1" vertex="1">
                    <mxGeometry x="-369.9999999999999" y="498.85" width="20.25" height="31.15" as="geometry"/>
                </mxCell>
                <mxCell id="77" value="" style="endArrow=classicThin;html=1;fontSize=20;fontColor=#000000;strokeColor=#59A6C2;strokeWidth=4;endSize=5;startSize=5;exitX=0.5;exitY=0;exitDx=0;exitDy=0;entryX=0;entryY=0.5;entryDx=0;entryDy=0;startArrow=none;startFill=0;endFill=1;edgeStyle=orthogonalEdgeStyle;dashed=1;labelBackgroundColor=none;" parent="1" source="74" target="6" edge="1">
                    <mxGeometry width="50" height="50" relative="1" as="geometry">
                        <mxPoint x="-1035.1680000000001" y="489.44000000000005" as="sourcePoint"/>
                        <mxPoint x="-350" y="390" as="targetPoint"/>
                        <Array as="points"/>
                    </mxGeometry>
                </mxCell>
                <mxCell id="78" value="&lt;span style=&quot;color: rgb(0, 0, 0); font-size: 18px;&quot;&gt;&lt;font style=&quot;font-size: 18px;&quot;&gt;Sidecar Control&lt;/font&gt;&lt;/span&gt;" style="edgeLabel;html=1;align=center;verticalAlign=middle;resizable=0;points=[];labelBackgroundColor=none;fontSize=18;" parent="77" vertex="1" connectable="0">
                    <mxGeometry x="-0.2004" y="4" relative="1" as="geometry">
                        <mxPoint x="4" y="288" as="offset"/>
                    </mxGeometry>
                </mxCell>
                <mxCell id="79" value="" style="endArrow=classicThin;html=1;fontSize=20;fontColor=#000000;strokeColor=#59A6C2;strokeWidth=4;endSize=5;startSize=5;exitX=0.5;exitY=1;exitDx=0;exitDy=0;entryX=0;entryY=0.5;entryDx=0;entryDy=0;startArrow=none;startFill=0;endFill=1;edgeStyle=orthogonalEdgeStyle;dashed=1;labelBackgroundColor=#FFFFFF;" parent="1" source="74" target="19" edge="1">
                    <mxGeometry width="50" height="50" relative="1" as="geometry">
                        <mxPoint x="-396" y="490" as="sourcePoint"/>
                        <mxPoint x="-440" y="869.9999999999998" as="targetPoint"/>
                        <Array as="points"/>
                    </mxGeometry>
                </mxCell>
                <mxCell id="81" value="" style="shape=image;verticalLabelPosition=bottom;labelBackgroundColor=#ffffff;verticalAlign=top;aspect=fixed;imageAspect=0;image=data:image/png,iVBORw0KGgoAAAANSUhEUgAAAEAAAABACAYAAACqaXHeAAAAAXNSR0IArs4c6QAAD+JJREFUeF7lmweQVVUShv/7JuLMSE6FCIi6gEhSBCNBwQJRZC1kQUSCEiyVoCBmFAVclKAWScUIrLouJkRLLaJuYVgQA4gBUEQliKiEiXfra9953rm+xwQGHYpDUfPCPed0/939d5++93k6xMP3/fqS2khqIamRpHqSWibYdo2kTZLWS+L1Ks/zeH/IhncoVvZ9/xxJF0vqElX6YLYBjMWSXvA8b/nBLBRvbpkB4Pt+RUmDJQ0sA6UT6QkYcyXN8Txvd1mAcdAA+L5fSdIYSTeVhUAlWGOipH96nvdTCeb84dKDAsD3/eGSxkkChL9ioPw4z/Oml3bzUgHg+z6ENlVS+9JuXMbzlkoa6XkexFmiUWIAfN8fImlWiXb58y4e6nne7JJsVyIAfN/H6iNKssFfcO00z/NGFnffYgPg+/58Sb2Lu/BffN0Cz/P6FEeGYgHg+/5/JPUozoLl6JqFnuf9vSh5igTgMLN8WN8iPeGAABwmMV+UkQ/ICQkBKIrtfd+X5xXpQEUJVybfF0OWhNkhrgbRPL86nnT5+fmmeCQSsa/D78tEo2IsUlBQIBRPSkqyq8Pv4yzRMl6dkAiAJeEiJ4xybm6ube6AcEIE3yfSg7X4HxyAWhyPQtHwnhghJSUltlwCj1jqeV6HsEx/ACBa3k4LXhjc9PXXX9ebb76pTz/9VFWqVFGjRo3UqVMnnXbaaTFL8CIMBEKxjrNYInBQhrlhMJgbXPfdd9/VG2+8ofXr1+vHH39UkyZNdN555+n888+PyRHHGCPCZXMhAKIHm43B2h6BEHrz5s26//779fbbbys1NVUnn3yyPvzwQ7MkwvK+f//+Ouuss2KhEXTPoDDff/+9tm3bpr1799rcjIwM1ahRw/67EQTdycB3K1as0BNPPKGPPvooBmizZs3sfU5Ojs4880xdf/31qlevnoVnCHDODg2CB6gwABOCpzonxOrVq3XHHXfohx9+UPXq1XXbbbepTZs2evzxxzVz5kxVrFhRP/30kwnUrl07XXvttapfv769d4oz96233hKW+/bbb0159x1/MzMzdcwxx5gndejQwbzLhQkgbdq0SQ8++KCWLVtm8ypVqqTdu3dr2LBhBvyqVas0fvx4bd++XTVr1tSdd96pli1bFpIhCu5Ez/NudkDHAIie52NHSyf8xx9/rBtuuEF79uyxhSdMmKATTzxRcABxN2XKFD311FOqVq2a8vLyDIisrCwNHDjQBMMKfP/qq69q165dSk9Pt3lYJjk5OWZxrsOC/Gef7t276+KL6anILP7oo4/ql19+McWZt2PHDvXt29es7WTZsGGDbr75ZjMUXnXfffepadOm8UCo5PoJQQBGc75mQ+fWLHTNNdfYglWrVrUQOO6442LfO+IbOXKkli9fblZDEQQCiPbt29t7+IL5KO7YmrlBAFx8Y232B/BzzjlHW7duNfAAmOsBjpg/++yzNXXq1JiLO5m/+uorA2Xnzp0G5EMPPWR/Q8Q4xvO8yewZBGCd6+Q4wrnxxhvNtbDovffea2gysBIWwJoozcDaa9eutWvZDBAArmHDhqpcubJ9Fmb/IAAutXINQPHdr7/+qv3795urOwL9+eefjW/wCgZgcA0AwU0MvBbZ8RhCFdlDxLze87zGMQCiPbxlfOCI46WXXtLkyZNVoUIFjRs3TmeccYZt9vzzz2vRokVGYli1Tp06Zg2I6J577jGyRJDvvvvO4hpiIzQc2aWlpdkeDKzpcnl2drb4z2dcyxq4MfGO0oDJOscee6xuueUWI72VK1dqy5YtZm32ueCCC3TJJZeYUd555x2Te9++fRo9erQuuuiiMCm2o8doHuD7/hQaCo50IKjBgwdr48aNGjFihC699FKtWbPGkMTKLVq0MMUhNbwAS0Fg/CctwfKgj1e0bdvWFGEtUijfEccoBhhYGm6AtQGSdZn7wQcfmCVZ38U8ijZv3tyU/uabbwxgrH/uuecasSIjhsD6yPjss89q2rRpatCggebMmaOjjjrKgI+m2Kme541yAJj7O+KbP3++EQhEBPsTBrfffrsJysIAgVsTX2QCPIGYZT7WxfpPP/20xXBwoADsTCp1ZIZVe/bsqauuuqpQPDPvlVdeMQIFBNZFSSxKiAAq6wEyPIVsKE7GwgPuuusuc3/2e/HFF43I+/TpEyTEdZ7nNfGiffuNCA8yuPlll11mLsjmLDx06FCzMvEM8bi4R0gAeOCBByz2sehnn32mfv366eijjzbksRhuC2+gCAogNMKjPAVM69atzc0pqLiWsCMcSK9z587Vyy+/bHsSBlxHmMAL1113na3lBrJDyF9++aV5x6xZs8xQyMN68+bNi6XXaApuAAC9JP3LWR9LU2xMnz7dqjzyLOkFAVAUV2VgcQTi8wULFpjFGYQPA3d85plnTJmTTjrJ5iE8Aj3yyCNWP0BceAKuStq8/PLLjRMIBYDCCOxBakNplCAr4A2kwN69e5vBiH8UZsBBAMPnpGv2ISyHDx9u6+IZgfrkHwAwsaCgYCyI4JoI7SopEAQ1XO7uu+82IiS94RkQIVZEibp161pMkhnYGFdFSIjnyiuvNMFOP/10i2XiEIDHjBlj4H3yySemFOkVRSm08JwTTjjBFAYQjAJ34GEoiDwUWm5PQhACBEAAhQBvvfVWy0S4PUZ0lWyvXr2sWoyCMAkAFnIXh40gF4iMUCCfUtFhNawzYMAArVu3zqotrAsYuP3SpUstHhEOAJxnEDIMQqFHjx7mjijEe8iQahLLsQ8WYqAYYQbohA5eQJjA+oQiewAWn6MA3kblCWmiNPzEuo0bN9Zjjz1m4UMY4bmufgnqaHebfN/n2Eub24ZzDyo8XBu34fXnn39ungHBUa5Ckrg3LItHgDzuSmxyHli4cGFMYVwcpkZQQgBiXbx4sQGHpQGR9RnwDSUvALIm2WDSpEnmOXgpngDIKI/FcW0AQbb33ntPtWvXtoKNdUeNGmUFGl7A6/BJUtJqAIidS4NEOGjQIFv44YcfNlclLeJGpCnYH1d1KQVl+Qwr4dJYHOLBI3B9hEEh4pQTHAAAHmGCYhAZ3lGrVi117NjRXhP/hBPKE1IuZWIAAEAhSmUnPmcAPJawIDxIe8wnu7AXpbQ7XwQPZoUAcEUQaZCNQRcgKHCIeVgc60BqDHIwGwMUbkuRhBcQexdeeKGuvvpqswgje/9+LV+xwq5z5/eI5yk7J8csfcUVV5gLi2Oz75vSFGP8RQGMQ4jA8MQwoPE5hkAuBuADAnLBCYQOikPoY8eONU8InxBjALhamcnkZaxFHLEolRSfk2IgNiyOa1LcQIS4I8KhODFN3MEd1OBkkhSsuWuXtm7ZYutigeTUVOMa/mXv22tKc329hg2VvWePKQoweIjrEaAkFkYWAOE7CBDSPOWUU8zzAI1UDShUshgL/sIDn3vuOfs8eC6IAeCQwXUoQHBp2J2UQmxxRCXmiDWUZHNiGMVRiPksjEe4nG/H1sqVlZ+TrYxIRJXr1tXevfuUmZGpfTu2Ky8nR0pJVcVav/UBCnJz9eu2HcpPS1VqerrxhRuEABkIEnN7AgIkiXKEBQRK/MNJS5YssfoCAgQ0iqVu3bpZKAe9wABwiGBNiI/8CrJYGYVhbtIKoYC7U+Fhoa+//jp2UCHFEWMICQjOLWvWrq0KvlRr2X/Vc8YUtenbT4vGjdOSydOUnpGl3P17NWzJazqmeUvNGzRIa//9gvZ276rsSERHZ2YqLT09djZAedZGAXgCgPE2iieUJ70CFK6PrHghgOAdYd2czoU4AMu5ExXIM/nJJ5+0+HGLTZw40Q4cruQlRACKvxAUTP/FF18YaAiYlZmprCpVVHflKrVs1Uydx4/XzC7d5MtXWiRduwv2qGP/Afpb506a2aePvFp1tLNta0Vyc5WZlWVxTqhgYUiY9/AKro1i/OU9hRIcdNNNN8WMBo9BxhjRjbCOAPC/4CMrLhPgVhATShBLxD+sCqmANiPcnMTVEJKqkBxMTKckJyuSnqZ68lR/wwaRcjiA0FN26Ye/v71O0rZ2ZykPq/u+1Rn8B1S8jmMwe1OrhPdmNl4JaeOJpGfqf/Th6Az3YPVQn3BNrBByCLn4oFgh1VD4wAVUU6QzFMMKLv243kGw98YanTt3thzsQPDS0lU3L1f1Nm5Vmr8/pjz7cjjOrlxVu5s2VU5GBUU4Lkciql6tmhFeq1atrEoMDnekdgrhJYQnRRs1BSUwBqEwoo6hWRqnR2iFEE9ajHWLu9ggzfAahSHG2bNnWzFDWCRoO9vnbhMKlq5du9qRlvyempKi/OQkZaamqUYkWVn5eUryC5SbmqLczCzlZWXJo2uMhyQlKT0tzZSngsOVIVzXFInXPncy4e4c0yG7IUOGGCBcz6EtjtxWCtthKFgF0ngkX7Mx7gSpUAdwAMGt4iBZyDqu4gIE5iAQpAofJNMPTEtXclqKKvA3NVWpSUmiq+9FIhbLhB98QlEE53DeSAR62HOpUAlB6gCIkLCFwzjhUjaHqkE7DPEYG63wmFtT65O/cXUGBREHJZojKFQUAEEwqQ3oH5BW6SJlZmQYQWLhpGiPDwvl5eebxVGe4oaSmKLGdY2KumniZEJ54p9ynL8MQoPzhhVavzdEeNmgUEOkkBkDgOBK3AOgxdSlS5diARAEgdeOHDkDQFakS1fguBR6/PHH2/qA7CrIoiwf9gDWR04OU4RtSOGgitYXLNQSC/KAm4gAWIMeHNmAMrQ4HhBcK3xHiPqBKpKDE5al4qOag93DCoWNkui9kwlPpXIlY3ACdV3mOEAUaonRu7KmaHA49MkGtMVgVnpucU5VRcrJHP6HW+HhiVR2rjFa5KKBC5xM9CzJWLTDYP8DeNDvTVHW8X0/1hYPW4GbIdTYdHIS3GgoiayF7g24ifHuB5ZkUQcAnsoJkDMLqTOBtxZui0cBiN0YCQNAKsSdZsyYoVNPPbVUHlASZUpzrQPg/ffft1MoYUsKTABA3BsjPOpa6KlLN5muKl5ALqXbUpoQKI1SJZnjZILtqWCxPl3tBAD88dZY1AsK3Rx1k2liEE/U2pwCi8vMJVHgYK91MnE056wCb9FljgNA/JujUQB45DV2e9yhyvMAkCAFUXm0vgPPyUYBBAnyvEBI3gPfHo+CwPO/VkE4VDndcQantV0ere8AcLJRc1CAUVeE5D3wAxKBhf7wiMzBumg5mF+8R2SilqdmLPSQVHm2fKL6JfR58R+SioJQnh+KLqlDlewxuUAoHA4PRxcFRukelAyAcDg9JB0G4+AelQ2AcOQ+LH2YekKRlnd6lehh38Pk4elD84OJgCeU5+xwaH8yEwDhyP3RVJBmj9ifzYVAOHJ/OBkC4sj86Wy8MqyMfzxNq+61cv/j6UT1aJyfz3MfIvZITmgeB7DNf+bP5/8PXqH8iZHGeVMAAAAASUVORK5CYII=;" vertex="1" parent="1">
                    <mxGeometry x="485" y="448.85" width="50" height="50" as="geometry"/>
                </mxCell>
            </root>
        </mxGraphModel>
    </diagram>
</mxfile>
